<svg height="512pt" viewBox="0 0 512 512" style="fill: #fff" width="512pt" xmlns="http://www.w3.org/2000/svg"><path d="m467 422c-9.925781 0-18-8.074219-18-18v-41.109375c21.515625-36.566406 33-78.34375 33-121.890625 0-64.371094-25.066406-124.894531-70.585938-170.414062-45.519531-45.519532-106.042968-70.585938-170.414062-70.585938s-124.894531 25.066406-170.414062 70.585938c-45.519532 45.519531-70.585938 106.042968-70.585938 170.414062s25.066406 124.894531 70.585938 170.414062c45.519531 45.519532 106.042968 70.585938 170.414062 70.585938s124.894531-25.066406 170.414062-70.585938c2.597657-2.601562 5.121094-5.253906 7.585938-7.949218v.535156c0 26.46875 21.53125 48 48 48 8.269531 0 15 6.730469 15 15s-6.730469 15-15 15h-74v30h74c24.8125 0 45-20.1875 45-45s-20.1875-45-45-45zm-226 30c-116.347656 0-211-94.652344-211-211s94.652344-211 211-211 211 94.652344 211 211-94.652344 211-211 211zm0 0"/><path d="m241 195c-25.363281 0-46 20.636719-46 46s20.636719 46 46 46 46-20.636719 46-46-20.636719-46-46-46zm0 62c-8.820312 0-16-7.179688-16-16s7.179688-16 16-16 16 7.179688 16 16-7.179688 16-16 16zm0 0"/><path d="m149.78125 201.757812c13.316406 0 26.632812-5.066406 36.773438-15.203124 20.273437-20.277344 20.273437-53.265626 0-73.539063-20.277344-20.277344-53.265626-20.277344-73.539063 0-20.277344 20.273437-20.277344 53.261719 0 73.539063 10.136719 10.136718 23.453125 15.203124 36.765625 15.203124zm-15.554688-67.53125c4.289063-4.289062 9.921876-6.433593 15.558594-6.433593 5.632813 0 11.265625 2.144531 15.554688 6.433593 8.578125 8.578126 8.578125 22.535157 0 31.113282s-22.535156 8.578125-31.113282 0c-8.578124-8.578125-8.578124-22.535156 0-31.113282zm0 0"/><path d="m295.445312 295.445312c-20.273437 20.277344-20.273437 53.265626 0 73.539063 10.140626 10.140625 23.453126 15.207031 36.773438 15.207031 13.316406 0 26.628906-5.066406 36.769531-15.207031 20.273438-20.273437 20.273438-53.261719 0-73.539063-20.277343-20.273437-53.265625-20.273437-73.542969 0zm52.328126 52.328126c-8.578126 8.578124-22.535157 8.578124-31.113282 0-8.578125-8.578126-8.578125-22.535157 0-31.113282 4.289063-4.289062 9.921875-6.433594 15.558594-6.433594 5.632812 0 11.265625 2.144532 15.554688 6.433594 8.578124 8.578125 8.578124 22.535156 0 31.113282zm0 0"/><path d="m295.445312 113.015625c-20.273437 20.273437-20.273437 53.261719 0 73.539063 10.140626 10.136718 23.453126 15.203124 36.773438 15.203124 13.316406 0 26.628906-5.066406 36.769531-15.203124 20.273438-20.277344 20.273438-53.265626 0-73.539063-20.277343-20.277344-53.265625-20.277344-73.542969 0zm52.328126 52.324219c-8.578126 8.578125-22.535157 8.578125-31.113282 0s-8.578125-22.535156 0-31.113282c4.289063-4.289062 9.921875-6.433593 15.558594-6.433593 5.632812 0 11.265625 2.144531 15.554688 6.433593 8.578124 8.578126 8.578124 22.535157 0 31.113282zm0 0"/><path d="m113.015625 295.445312c-20.277344 20.277344-20.277344 53.265626 0 73.539063 10.136719 10.140625 23.453125 15.207031 36.769531 15.207031s26.628906-5.066406 36.769532-15.207031c20.273437-20.273437 20.273437-53.261719 0-73.539063-20.277344-20.273437-53.265626-20.273437-73.539063 0zm52.324219 52.328126c-8.578125 8.578124-22.535156 8.578124-31.113282 0-8.578124-8.578126-8.578124-22.535157 0-31.113282 4.289063-4.289062 9.921876-6.433594 15.558594-6.433594 5.632813 0 11.265625 2.144532 15.554688 6.433594 8.578125 8.578125 8.578125 22.535156 0 31.113282zm0 0"/></svg>